Wavefont-wmax,rmax,amax,smax.ufo
<glyph name="_2" format="2">
	<unicode hex="0102"/>
	<unicode hex="0062"/>
	<advance width="200"/>
	<outline>
		<component base="cap" yOffset="980"/>
		<component base="cap" yOffset="744"/>
		<contour>
			<point x="0" y="1108" type="line"/>
			<point x="0" y="872" type="line"/>
			<point x="256" y="872" type="line"/>
			<point x="256" y="1108" type="line"/>
		</contour>
	</outline>
</glyph>
<glyph name="_3" format="2">
	<unicode hex="0103"/>
	<advance width="200"/>
	<outline>
		<component base="cap" yOffset="970"/>
		<component base="cap" yOffset="744"/>
		<contour>
			<point x="0" y="1098" type="line"/>
			<point x="0" y="872" type="line"/>
			<point x="256" y="872" type="line"/>
			<point x="256" y="1098" type="line"/>
		</contour>
	</outline>
</glyph>
<glyph name="_4" format="2">
	<unicode hex="0104"/>
	<unicode hex="0063"/>
	<advance width="200"/>
	<outline>
		<component base="cap" yOffset="960"/>
		<component base="cap" yOffset="744"/>
		<contour>
			<point x="0" y="1088" type="line"/>
			<point x="0" y="872" type="line"/>
			<point x="256" y="872" type="line"/>
			<point x="256" y="1088" type="line"/>
		</contour>
	</outline>
</glyph>
<glyph name="_5" format="2">
	<unicode hex="0105"/>
	<advance width="200"/>
	<outline>
		<component base="cap" yOffset="950"/>
		<component base="cap" yOffset="744"/>
		<contour>
			<point x="0" y="1078" type="line"/>
			<point x="0" y="872" type="line"/>
			<point x="256" y="872" type="line"/>
			<point x="256" y="1078" type="line"/>
		</contour>
	</outline>
</glyph>
<glyph name="_7" format="2">
	<unicode hex="0107"/>
	<advance width="200"/>
	<outline>
		<component base="cap" yOffset="930"/>
		<component base="cap" yOffset="744"/>
		<contour>
			<point x="0" y="1058" type="line"/>
			<point x="0" y="872" type="line"/>
			<point x="256" y="872" type="line"/>
			<point x="256" y="1058" type="line"/>
		</contour>
	</outline>
</glyph>
<glyph name="_11" format="2">
	<unicode hex="010B"/>
	<advance width="200"/>
	<outline>
		<component base="cap" yOffset="890"/>
		<component base="cap" yOffset="744"/>
		<contour>
			<point x="0" y="1018" type="line"/>
			<point x="0" y="872" type="line"/>
			<point x="256" y="872" type="line"/>
			<point x="256" y="1018" type="line"/>
		</contour>
	</outline>
</glyph>
<glyph name="_12" format="2">
	<unicode hex="010C"/>
	<unicode hex="0067"/>
	<advance width="200"/>
	<outline>
		<component base="cap" yOffset="880"/>
		<component base="cap" yOffset="744"/>
		<contour>
			<point x="0" y="1008" type="line"/>
			<point x="0" y="872" type="line"/>
			<point x="256" y="872" type="line"/>
			<point x="256" y="1008" type="line"/>
		</contour>
	</outline>
</glyph>
<glyph name="_14" format="2">
	<unicode hex="010E"/>
	<unicode hex="2582"/>
	<unicode hex="0068"/>
	<advance width="200"/>
	<outline>
		<component base="cap" yOffset="860"/>
		<component base="cap" yOffset="744"/>
		<contour>
			<point x="0" y="988" type="line"/>
			<point x="0" y="872" type="line"/>
			<point x="256" y="872" type="line"/>
			<point x="256" y="988" type="line"/>
		</contour>
	</outline>
</glyph>
<glyph name="_20" format="2">
	<unicode hex="0114"/>
	<unicode hex="0032"/>
	<unicode hex="006B"/>
	<advance width="200"/>
	<outline>
		<component base="cap" yOffset="800"/>
		<component base="cap" yOffset="744"/>
		<contour>
			<point x="0" y="928" type="line"/>
			<point x="0" y="872" type="line"/>
			<point x="256" y="872" type="line"/>
			<point x="256" y="928" type="line"/>
		</contour>
	</outline>
</glyph>
<glyph name="_25" format="2">
	<unicode hex="0119"/>
	<advance width="200"/>
	<outline>
		<component base="cap" yOffset="750"/>
		<component base="cap" yOffset="744"/>
		<contour>
			<point x="0" y="878" type="line"/>
			<point x="0" y="872" type="line"/>
			<point x="256" y="872" type="line"/>
			<point x="256" y="878" type="line"/>
		</contour>
	</outline>
</glyph>
<glyph name="_28" format="2">
	<unicode hex="011C"/>
	<unicode hex="2583"/>
	<unicode hex="006F"/>
	<advance width="200"/>
	<outline>
		<component base="cap" yOffset="720"/>
		<component base="cap" yOffset="744"/>
		<contour>
			<point x="0" y="848" type="line"/>
			<point x="0" y="872" type="line"/>
			<point x="256" y="872" type="line"/>
			<point x="256" y="848" type="line"/>
		</contour>
	</outline>
</glyph>
<glyph name="_32" format="2">
	<unicode hex="0120"/>
	<unicode hex="0071"/>
	<advance width="200"/>
	<outline>
		<component base="cap" yOffset="680"/>
		<component base="cap" yOffset="744"/>
		<contour>
			<point x="0" y="808" type="line"/>
			<point x="0" y="872" type="line"/>
			<point x="256" y="872" type="line"/>
			<point x="256" y="808" type="line"/>
		</contour>
	</outline>
</glyph>
<glyph name="_33" format="2">
	<unicode hex="0121"/>
	<advance width="200"/>
	<outline>
		<component base="cap" yOffset="670"/>
		<component base="cap" yOffset="744"/>
		<contour>
			<point x="0" y="798" type="line"/>
			<point x="0" y="872" type="line"/>
			<point x="256" y="872" type="line"/>
			<point x="256" y="798" type="line"/>
		</contour>
	</outline>
</glyph>
<glyph name="_34" format="2">
	<unicode hex="0122"/>
	<unicode hex="0072"/>
	<advance width="200"/>
	<outline>
		<component base="cap" yOffset="660"/>
		<component base="cap" yOffset="744"/>
		<contour>
			<point x="0" y="788" type="line"/>
			<point x="0" y="872" type="line"/>
			<point x="256" y="872" type="line"/>
			<point x="256" y="788" type="line"/>
		</contour>
	</outline>
</glyph>
<glyph name="_35" format="2">
	<unicode hex="0123"/>
	<advance width="200"/>
	<outline>
		<component base="cap" yOffset="650"/>
		<component base="cap" yOffset="744"/>
		<contour>
			<point x="0" y="778" type="line"/>
			<point x="0" y="872" type="line"/>
			<point x="256" y="872" type="line"/>
			<point x="256" y="778" type="line"/>
		</contour>
	</outline>
</glyph>
<glyph name="_36" format="2">
	<unicode hex="0124"/>
	<unicode hex="0073"/>
	<advance width="200"/>
	<outline>
		<component base="cap" yOffset="640"/>
		<component base="cap" yOffset="744"/>
		<contour>
			<point x="0" y="768" type="line"/>
			<point x="0" y="872" type="line"/>
			<point x="256" y="872" type="line"/>
			<point x="256" y="768" type="line"/>
		</contour>
	</outline>
</glyph>
<glyph name="_37" format="2">
	<unicode hex="0125"/>
	<advance width="200"/>
	<outline>
		<component base="cap" yOffset="630"/>
		<component base="cap" yOffset="744"/>
		<contour>
			<point x="0" y="758" type="line"/>
			<point x="0" y="872" type="line"/>
			<point x="256" y="872" type="line"/>
			<point x="256" y="758" type="line"/>
		</contour>
	</outline>
</glyph>
<glyph name="_43" format="2">
	<unicode hex="012B"/>
	<advance width="200"/>
	<outline>
		<component base="cap" yOffset="570"/>
		<component base="cap" yOffset="744"/>
		<contour>
			<point x="0" y="698" type="line"/>
			<point x="0" y="872" type="line"/>
			<point x="256" y="872" type="line"/>
			<point x="256" y="698" type="line"/>
		</contour>
	</outline>
</glyph>
<glyph name="_45" format="2">
	<unicode hex="012D"/>
	<advance width="200"/>
	<outline>
		<component base="cap" yOffset="550"/>
		<component base="cap" yOffset="744"/>
		<contour>
			<point x="0" y="678" type="line"/>
			<point x="0" y="872" type="line"/>
			<point x="256" y="872" type="line"/>
			<point x="256" y="678" type="line"/>
		</contour>
	</outline>
</glyph>
<glyph name="_46" format="2">
	<unicode hex="012E"/>
	<unicode hex="0078"/>
	<advance width="200"/>
	<outline>
		<component base="cap" yOffset="540"/>
		<component base="cap" yOffset="744"/>
		<contour>
			<point x="0" y="668" type="line"/>
			<point x="0" y="872" type="line"/>
			<point x="256" y="872" type="line"/>
			<point x="256" y="668" type="line"/>
		</contour>
	</outline>
</glyph>
<glyph name="_47" format="2">
	<unicode hex="012F"/>
	<advance width="200"/>
	<outline>
		<component base="cap" yOffset="530"/>
		<component base="cap" yOffset="744"/>
		<contour>
			<point x="0" y="658" type="line"/>
			<point x="0" y="872" type="line"/>
			<point x="256" y="872" type="line"/>
			<point x="256" y="658" type="line"/>
		</contour>
	</outline>
</glyph>
<glyph name="_48" format="2">
	<unicode hex="0130"/>
	<unicode hex="0079"/>
	<advance width="200"/>
	<outline>
		<component base="cap" yOffset="520"/>
		<component base="cap" yOffset="744"/>
		<contour>
			<point x="0" y="648" type="line"/>
			<point x="0" y="872" type="line"/>
			<point x="256" y="872" type="line"/>
			<point x="256" y="648" type="line"/>
		</contour>
	</outline>
</glyph>
<glyph name="_50" format="2">
	<unicode hex="0132"/>
	<unicode hex="0035"/>
	<unicode hex="007A"/>
	<advance width="200"/>
	<outline>
		<component base="cap" yOffset="500"/>
		<component base="cap" yOffset="744"/>
		<contour>
			<point x="0" y="628" type="line"/>
			<point x="0" y="872" type="line"/>
			<point x="256" y="872" type="line"/>
			<point x="256" y="628" type="line"/>
		</contour>
	</outline>
</glyph>
<glyph name="_51" format="2">
	<unicode hex="0133"/>
	<advance width="200"/>
	<outline>
		<component base="cap" yOffset="490"/>
		<component base="cap" yOffset="744"/>
		<contour>
			<point x="0" y="618" type="line"/>
			<point x="0" y="872" type="line"/>
			<point x="256" y="872" type="line"/>
			<point x="256" y="618" type="line"/>
		</contour>
	</outline>
</glyph>
<glyph name="_52" format="2">
	<unicode hex="0134"/>
	<unicode hex="0041"/>
	<advance width="200"/>
	<outline>
		<component base="cap" yOffset="480"/>
		<component base="cap" yOffset="744"/>
		<contour>
			<point x="0" y="608" type="line"/>
			<point x="0" y="872" type="line"/>
			<point x="256" y="872" type="line"/>
			<point x="256" y="608" type="line"/>
		</contour>
	</outline>
</glyph>
<glyph name="_53" format="2">
	<unicode hex="0135"/>
	<advance width="200"/>
	<outline>
		<component base="cap" yOffset="470"/>
		<component base="cap" yOffset="744"/>
		<contour>
			<point x="0" y="598" type="line"/>
			<point x="0" y="872" type="line"/>
			<point x="256" y="872" type="line"/>
			<point x="256" y="598" type="line"/>
		</contour>
	</outline>
</glyph>
<glyph name="_54" format="2">
	<unicode hex="0136"/>
	<unicode hex="0042"/>
	<advance width="200"/>
	<outline>
		<component base="cap" yOffset="460"/>
		<component base="cap" yOffset="744"/>
		<contour>
			<point x="0" y="588" type="line"/>
			<point x="0" y="872" type="line"/>
			<point x="256" y="872" type="line"/>
			<point x="256" y="588" type="line"/>
		</contour>
	</outline>
</glyph>
<glyph name="_58" format="2">
	<unicode hex="013A"/>
	<unicode hex="0044"/>
	<advance width="200"/>
	<outline>
		<component base="cap" yOffset="420"/>
		<component base="cap" yOffset="744"/>
		<contour>
			<point x="0" y="548" type="line"/>
			<point x="0" y="872" type="line"/>
			<point x="256" y="872" type="line"/>
			<point x="256" y="548" type="line"/>
		</contour>
	</outline>
</glyph>
<glyph name="_61" format="2">
	<unicode hex="013D"/>
	<advance width="200"/>
	<outline>
		<component base="cap" yOffset="390"/>
		<component base="cap" yOffset="744"/>
		<contour>
			<point x="0" y="518" type="line"/>
			<point x="0" y="872" type="line"/>
			<point x="256" y="872" type="line"/>
			<point x="256" y="518" type="line"/>
		</contour>
	</outline>
</glyph>
<glyph name="_62" format="2">
	<unicode hex="013E"/>
	<unicode hex="0046"/>
	<advance width="200"/>
	<outline>
		<component base="cap" yOffset="380"/>
		<component base="cap" yOffset="744"/>
		<contour>
			<point x="0" y="508" type="line"/>
			<point x="0" y="872" type="line"/>
			<point x="256" y="872" type="line"/>
			<point x="256" y="508" type="line"/>
		</contour>
	</outline>
</glyph>
<glyph name="_67" format="2">
	<unicode hex="0143"/>
	<advance width="200"/>
	<outline>
		<component base="cap" yOffset="330"/>
		<component base="cap" yOffset="744"/>
		<contour>
			<point x="0" y="458" type="line"/>
			<point x="0" y="872" type="line"/>
			<point x="256" y="872" type="line"/>
			<point x="256" y="458" type="line"/>
		</contour>
	</outline>
</glyph>
<glyph name="_68" format="2">
	<unicode hex="0144"/>
	<unicode hex="0049"/>
	<advance width="200"/>
	<outline>
		<component base="cap" yOffset="320"/>
		<component base="cap" yOffset="744"/>
		<contour>
			<point x="0" y="448" type="line"/>
			<point x="0" y="872" type="line"/>
			<point x="256" y="872" type="line"/>
			<point x="256" y="448" type="line"/>
		</contour>
	</outline>
</glyph>
<glyph name="_69" format="2">
	<unicode hex="0145"/>
	<advance width="200"/>
	<outline>
		<component base="cap" yOffset="310"/>
		<component base="cap" yOffset="744"/>
		<contour>
			<point x="0" y="438" type="line"/>
			<point x="0" y="872" type="line"/>
			<point x="256" y="872" type="line"/>
			<point x="256" y="438" type="line"/>
		</contour>
	</outline>
</glyph>
<glyph name="_77" format="2">
	<unicode hex="014D"/>
	<advance width="200"/>
	<outline>
		<component base="cap" yOffset="230"/>
		<component base="cap" yOffset="744"/>
		<contour>
			<point x="0" y="358" type="line"/>
			<point x="0" y="872" type="line"/>
			<point x="256" y="872" type="line"/>
			<point x="256" y="358" type="line"/>
		</contour>
	</outline>
</glyph>
<glyph name="_78" format="2">
	<unicode hex="014E"/>
	<unicode hex="004E"/>
	<advance width="200"/>
	<outline>
		<component base="cap" yOffset="220"/>
		<component base="cap" yOffset="744"/>
		<contour>
			<point x="0" y="348" type="line"/>
			<point x="0" y="872" type="line"/>
			<point x="256" y="872" type="line"/>
			<point x="256" y="348" type="line"/>
		</contour>
	</outline>
</glyph>
<glyph name="_79" format="2">
	<unicode hex="014F"/>
	<advance width="200"/>
	<outline>
		<component base="cap" yOffset="210"/>
		<component base="cap" yOffset="744"/>
		<contour>
			<point x="0" y="338" type="line"/>
			<point x="0" y="872" type="line"/>
			<point x="256" y="872" type="line"/>
			<point x="256" y="338" type="line"/>
		</contour>
	</outline>
</glyph>
<glyph name="_95" format="2">
	<unicode hex="015F"/>
	<advance width="200"/>
	<outline>
		<component base="cap" yOffset="50"/>
		<component base="cap" yOffset="744"/>
		<contour>
			<point x="0" y="178" type="line"/>
			<point x="0" y="872" type="line"/>
			<point x="256" y="872" type="line"/>
			<point x="256" y="178" type="line"/>
		</contour>
	</outline>
</glyph>
<glyph name="_96" format="2">
	<unicode hex="0160"/>
	<unicode hex="0057"/>
	<advance width="200"/>
	<outline>
		<component base="cap" yOffset="40"/>
		<component base="cap" yOffset="744"/>
		<contour>
			<point x="0" y="168" type="line"/>
			<point x="0" y="872" type="line"/>
			<point x="256" y="872" type="line"/>
			<point x="256" y="168" type="line"/>
		</contour>
	</outline>
</glyph>
<glyph name="_98" format="2">
	<unicode hex="0162"/>
	<unicode hex="0058"/>
	<advance width="200"/>
	<outline>
		<component base="cap" yOffset="20"/>
		<component base="cap" yOffset="744"/>
		<contour>
			<point x="0" y="148" type="line"/>
			<point x="0" y="872" type="line"/>
			<point x="256" y="872" type="line"/>
			<point x="256" y="148" type="line"/>
		</contour>
	</outline>
</glyph>
<glyph name="_103" format="2">
	<unicode hex="0167"/>
	<advance width="200"/>
	<outline>
		<component base="cap" yOffset="-30"/>
		<component base="cap" yOffset="744"/>
		<contour>
			<point x="0" y="98" type="line"/>
			<point x="0" y="872" type="line"/>
			<point x="256" y="872" type="line"/>
			<point x="256" y="98" type="line"/>
		</contour>
	</outline>
</glyph>
<glyph name="_107" format="2">
	<unicode hex="016B"/>
	<advance width="200"/>
	<outline>
		<component base="cap" yOffset="-70"/>
		<component base="cap" yOffset="744"/>
		<contour>
			<point x="0" y="58" type="line"/>
			<point x="0" y="872" type="line"/>
			<point x="256" y="872" type="line"/>
			<point x="256" y="58" type="line"/>
		</contour>
	</outline>
</glyph>
<glyph name="_109" format="2">
	<unicode hex="016D"/>
	<advance width="200"/>
	<outline>
		<component base="cap" yOffset="-90"/>
		<component base="cap" yOffset="744"/>
		<contour>
			<point x="0" y="38" type="line"/>
			<point x="0" y="872" type="line"/>
			<point x="256" y="872" type="line"/>
			<point x="256" y="38" type="line"/>
		</contour>
	</outline>
</glyph>
<glyph name="_121" format="2">
	<unicode hex="0179"/>
	<advance width="200"/>
	<outline>
		<component base="cap" yOffset="-210"/>
		<component base="cap" yOffset="744"/>
		<contour>
			<point x="0" y="-82" type="line"/>
			<point x="0" y="872" type="line"/>
			<point x="256" y="872" type="line"/>
			<point x="256" y="-82" type="line"/>
		</contour>
	</outline>
</glyph>
<glyph name="_124" format="2">
	<unicode hex="017C"/>
	<advance width="200"/>
	<outline>
		<component base="cap" yOffset="-240"/>
		<component base="cap" yOffset="744"/>
		<contour>
			<point x="0" y="-112" type="line"/>
			<point x="0" y="872" type="line"/>
			<point x="256" y="872" type="line"/>
			<point x="256" y="-112" type="line"/>
		</contour>
	</outline>
</glyph>
<glyph name="_10.clip" format="2">
	<advance width="200"/>
	<outline>
		<contour>
			<point x="0" y="977.5"/>
			<point x="22.5" y="1000"/>
			<point x="50" y="1000" type="curve" smooth="yes"/>
			<point x="206" y="1000" type="line"/>
			<point x="233.5" y="1000"/>
			<point x="256" y="977.5"/>
			<point x="256" y="950" type="curve" smooth="yes"/>
			<point x="256" y="950" type="line"/>
			<point x="256" y="922.5"/>
			<point x="233.5" y="900"/>
			<point x="206" y="900" type="curve" smooth="yes"/>
			<point x="50" y="900" type="line"/>
			<point x="22.5" y="900"/>
			<point x="0" y="922.5"/>
			<point x="0" y="950" type="curve" smooth="yes"/>
			<point x="0" y="950" type="line"/>
		</contour>
	</outline>
</glyph>
<glyph name="_18.clip" format="2">
	<advance width="200"/>
	<outline>
		<contour>
			<point x="0" y="959.5"/>
			<point x="40.5" y="1000"/>
			<point x="90" y="1000" type="curve" smooth="yes"/>
			<point x="166" y="1000" type="line"/>
			<point x="215.5" y="1000"/>
			<point x="256" y="959.5"/>
			<point x="256" y="910" type="curve" smooth="yes"/>
			<point x="256" y="910" type="line"/>
			<point x="256" y="860.5"/>
			<point x="215.5" y="820"/>
			<point x="166" y="820" type="curve" smooth="yes"/>
			<point x="90" y="820" type="line"/>
			<point x="40.5" y="820"/>
			<point x="0" y="860.5"/>
			<point x="0" y="910" type="curve" smooth="yes"/>
			<point x="0" y="910" type="line"/>
		</contour>
	</outline>
</glyph>
<glyph name="_23.clip" format="2">
	<advance width="200"/>
	<outline>
		<contour>
			<point x="0" y="948.25"/>
			<point x="51.75" y="1000"/>
			<point x="115" y="1000" type="curve" smooth="yes"/>
			<point x="141" y="1000" type="line"/>
			<point x="204.25" y="1000"/>
			<point x="256" y="948.25"/>
			<point x="256" y="885" type="curve" smooth="yes"/>
			<point x="256" y="885" type="line"/>
			<point x="256" y="821.75"/>
			<point x="204.25" y="770"/>
			<point x="141" y="770" type="curve" smooth="yes"/>
			<point x="115" y="770" type="line"/>
			<point x="51.75" y="770"/>
			<point x="0" y="821.75"/>
			<point x="0" y="885" type="curve" smooth="yes"/>
			<point x="0" y="885" type="line"/>
		</contour>
	</outline>
</glyph>
<glyph name="_3.clip" format="2">
	<advance width="200"/>
	<outline>
		<contour>
			<point x="0" y="993.25"/>
			<point x="6.75" y="1000"/>
			<point x="15" y="1000" type="curve" smooth="yes"/>
			<point x="241" y="1000" type="line"/>
			<point x="249.25" y="1000"/>
			<point x="256" y="993.25"/>
			<point x="256" y="985" type="curve" smooth="yes"/>
			<point x="256" y="985" type="line"/>
			<point x="256" y="976.75"/>
			<point x="249.25" y="970"/>
			<point x="241" y="970" type="curve" smooth="yes"/>
			<point x="15" y="970" type="line"/>
			<point x="6.75" y="970"/>
			<point x="0" y="976.75"/>
			<point x="0" y="985" type="curve" smooth="yes"/>
			<point x="0" y="985" type="line"/>
		</contour>
	</outline>
</glyph>
<glyph name="_9.clip" format="2">
	<advance width="200"/>
	<outline>
		<contour>
			<point x="0" y="979.75"/>
			<point x="20.25" y="1000"/>
			<point x="45" y="1000" type="curve" smooth="yes"/>
			<point x="211" y="1000" type="line"/>
			<point x="235.75" y="1000"/>
			<point x="256" y="979.75"/>
			<point x="256" y="955" type="curve" smooth="yes"/>
			<point x="256" y="955" type="line"/>
			<point x="256" y="930.25"/>
			<point x="235.75" y="910"/>
			<point x="211" y="910" type="curve" smooth="yes"/>
			<point x="45" y="910" type="line"/>
			<point x="20.25" y="910"/>
			<point x="0" y="930.25"/>
			<point x="0" y="955" type="curve" smooth="yes"/>
			<point x="0" y="955" type="line"/>
		</contour>
	</outline>
</glyph>
<glyph name="cap" format="2">
	<outline>
		<contour>
			<point x="0" y="198.4"/>
			<point x="57.6" y="256"/>
			<point x="128" y="256" type="curve" smooth="yes"/>
			<point x="128" y="256" type="line"/>
			<point x="198.4" y="256"/>
			<point x="256" y="198.4"/>
			<point x="256" y="128" type="curve" smooth="yes"/>
			<point x="256" y="128" type="line"/>
			<point x="256" y="57.6"/>
			<point x="198.4" y="0"/>
			<point x="128" y="0" type="curve" smooth="yes"/>
			<point x="128" y="0" type="line"/>
			<point x="57.6" y="0"/>
			<point x="0" y="57.6"/>
			<point x="0" y="128" type="curve" smooth="yes"/>
			<point x="0" y="128" type="line"/>
		</contour>
	</outline>
</glyph>
